<svg width="1200" height="720" viewBox="0 0 1200 720" fill="none" xmlns="http://www.w3.org/2000/svg">
  <defs>
    <linearGradient id="bg" x1="120" y1="120" x2="1080" y2="600" gradientUnits="userSpaceOnUse">
      <stop stop-color="#D8F3FF"/>
      <stop offset="0.5" stop-color="#FFFFFF"/>
      <stop offset="1" stop-color="#FFE7D1"/>
    </linearGradient>
    <linearGradient id="b1" x1="0" y1="0" x2="1" y2="1">
      <stop stop-color="#08A7F0"/>
      <stop offset="1" stop-color="#046AA2"/>
    </linearGradient>
    <linearGradient id="b2" x1="0" y1="0" x2="1" y2="1">
      <stop stop-color="#F97316"/>
      <stop offset="1" stop-color="#C2410C"/>
    </linearGradient>
  </defs>

  <rect x="0" y="0" width="1200" height="720" rx="48" fill="url(#bg)"/>

  <circle cx="245" cy="210" r="110" fill="#08A7F0" fill-opacity="0.10"/>
  <circle cx="980" cy="150" r="140" fill="#F97316" fill-opacity="0.10"/>
  <circle cx="960" cy="560" r="180" fill="#08A7F0" fill-opacity="0.10"/>

  <rect x="160" y="190" width="520" height="330" rx="36" fill="white" fill-opacity="0.9" stroke="#E2E8F0"/>
  <rect x="210" y="245" width="420" height="22" rx="11" fill="#0B577F" fill-opacity="0.25"/>
  <rect x="210" y="285" width="310" height="22" rx="11" fill="#0B577F" fill-opacity="0.20"/>
  <rect x="210" y="325" width="370" height="22" rx="11" fill="#0B577F" fill-opacity="0.20"/>
  <rect x="210" y="375" width="260" height="18" rx="9" fill="#0B577F" fill-opacity="0.16"/>
  <rect x="210" y="405" width="300" height="18" rx="9" fill="#0B577F" fill-opacity="0.16"/>

  <rect x="740" y="210" width="300" height="260" rx="36" fill="white" fill-opacity="0.9" stroke="#E2E8F0"/>

  <path d="M790 280C790 257.909 807.909 240 830 240H950C972.091 240 990 257.909 990 280V330C990 352.091 972.091 370 950 370H877L820 412V370H830C807.909 370 790 352.091 790 330V280Z" fill="url(#b1)" fill-opacity="0.95"/>
  <circle cx="850" cy="305" r="9" fill="white" fill-opacity="0.95"/>
  <circle cx="890" cy="305" r="9" fill="white" fill-opacity="0.95"/>
  <circle cx="930" cy="305" r="9" fill="white" fill-opacity="0.95"/>

  <path d="M360 560C360 529.072 385.072 504 416 504H784C814.928 504 840 529.072 840 560V602C840 632.928 814.928 658 784 658H520L420 702V658H416C385.072 658 360 632.928 360 602V560Z" fill="url(#b2)" fill-opacity="0.92"/>
  <rect x="420" y="548" width="310" height="20" rx="10" fill="white" fill-opacity="0.90"/>
  <rect x="420" y="580" width="240" height="20" rx="10" fill="white" fill-opacity="0.78"/>

  <path d="M230 220C230 220 275 165 340 160C405 155 440 210 440 210" stroke="#08A7F0" stroke-opacity="0.25" stroke-width="18" stroke-linecap="round"/>
  <path d="M760 520C760 520 835 470 930 480C1025 490 1080 560 1080 560" stroke="#F97316" stroke-opacity="0.25" stroke-width="18" stroke-linecap="round"/>
</svg>
